<?xml version="1.0" encoding="UTF-8" standalone="no"?>
<!-- Created with Inkscape (http://www.inkscape.org/) -->

<svg
   xmlns:dc="http://purl.org/dc/elements/1.1/"
   xmlns:cc="http://creativecommons.org/ns#"
   xmlns:rdf="http://www.w3.org/1999/02/22-rdf-syntax-ns#"
   xmlns:svg="http://www.w3.org/2000/svg"
   xmlns="http://www.w3.org/2000/svg"
   xmlns:sodipodi="http://sodipodi.sourceforge.net/DTD/sodipodi-0.dtd"
   xmlns:inkscape="http://www.inkscape.org/namespaces/inkscape"
   width="210mm"
   height="297mm"
   viewBox="0 0 744.09448819 1052.3622047"
   id="svg2"
   version="1.1"
   inkscape:version="0.91 r13725"
   sodipodi:docname="icon.svg">
  <defs
     id="defs4" />
  <sodipodi:namedview
     id="base"
     pagecolor="#ffffff"
     bordercolor="#666666"
     borderopacity="1.0"
     inkscape:pageopacity="0.0"
     inkscape:pageshadow="2"
     inkscape:zoom="7.9195959"
     inkscape:cx="264.94866"
     inkscape:cy="538.39314"
     inkscape:document-units="px"
     inkscape:current-layer="g4254"
     showgrid="false"
     inkscape:window-width="1920"
     inkscape:window-height="1017"
     inkscape:window-x="-8"
     inkscape:window-y="-8"
     inkscape:window-maximized="1" />
  <metadata
     id="metadata7">
    <rdf:RDF>
      <cc:Work
         rdf:about="">
        <dc:format>image/svg+xml</dc:format>
        <dc:type
           rdf:resource="http://purl.org/dc/dcmitype/StillImage" />
      </cc:Work>
    </rdf:RDF>
  </metadata>
  <g
     inkscape:label="Layer 1"
     inkscape:groupmode="layer"
     id="layer1">
    <g
       inkscape:export-ydpi="365.04001"
       inkscape:export-xdpi="365.04001"
       id="g4260"
       transform="matrix(-0.25881905,0.96592583,-0.96592583,-0.25881905,690.08981,413.88746)">
      <g
         id="g4262">
        <path
           sodipodi:nodetypes="cccccccc"
           inkscape:connector-curvature="0"
           id="path4264"
           d="m 191.64395,508.70987 c 4.91668,4.7354 11.1359,8.50904 17.22992,9.72485 14.93927,2.97842 29.46451,-6.71755 32.44351,-21.65673 1.69946,-8.58543 -0.77617,-17.4679 -6.67152,-23.93646 2.47602,5.01196 3.22016,10.80557 2.10747,16.40791 -2.68662,13.47539 -12.51659,22.51811 -25.25952,19.977 -5.17067,-1.22085 -9.06917,-6.07851 -11.82649,-8.21903 -1.5312,2.15486 -5.51211,6.94865 -8.02337,7.70246 z"
           style="fill:#b3b3b3;fill-opacity:1;stroke:none" />
        <circle
           style="fill:#ffba2a;fill-opacity:1;fill-rule:evenodd;stroke:none;stroke-width:1px;stroke-linecap:butt;stroke-linejoin:miter;stroke-opacity:1"
           id="circle4266"
           cx="190.71428"
           cy="499.50507"
           r="11.428572" />
      </g>
      <g
         transform="matrix(-0.99882264,0.04851125,-0.04851125,-0.99882264,481.02208,978.54422)"
         id="g4268">
        <path
           style="fill:#b3b3b3;fill-opacity:1;stroke:none"
           d="m 191.64395,508.70987 c 4.91668,4.7354 11.1359,8.50904 17.22992,9.72485 14.93927,2.97842 29.46451,-6.71755 32.44351,-21.65673 1.69946,-8.58543 -0.77617,-17.4679 -6.67152,-23.93646 2.47602,5.01196 3.22016,10.80557 2.10747,16.40791 -2.68662,13.47539 -12.51659,22.51811 -25.25952,19.977 -5.17067,-1.22085 -9.06917,-6.07851 -11.82649,-8.21903 -1.5312,2.15486 -5.51211,6.94865 -8.02337,7.70246 z"
           id="path4270"
           inkscape:connector-curvature="0"
           sodipodi:nodetypes="cccccccc" />
        <circle
           r="11.428572"
           cy="499.50507"
           cx="190.71428"
           id="circle4272"
           style="fill:#ffba2a;fill-opacity:1;fill-rule:evenodd;stroke:none;stroke-width:1px;stroke-linecap:butt;stroke-linejoin:miter;stroke-opacity:1" />
      </g>
    </g>
    <g
       transform="matrix(-0.25881905,0.96592583,-0.96592583,-0.25881905,690.08981,413.88746)"
       id="g4246"
       inkscape:export-xdpi="365.04001"
       inkscape:export-ydpi="365.04001">
      <g
         id="g4248">
        <path
           style="fill:#b3b3b3;fill-opacity:1;stroke:none"
           d="m 191.64395,508.70987 c 4.91668,4.7354 11.1359,8.50904 17.22992,9.72485 14.93927,2.97842 29.46451,-6.71755 32.44351,-21.65673 1.69946,-8.58543 -0.77617,-17.4679 -6.67152,-23.93646 2.47602,5.01196 3.22016,10.80557 2.10747,16.40791 -2.68662,13.47539 -12.51659,22.51811 -25.25952,19.977 -5.17067,-1.22085 -9.06917,-6.07851 -11.82649,-8.21903 -1.5312,2.15486 -5.51211,6.94865 -8.02337,7.70246 z"
           id="path4250"
           inkscape:connector-curvature="0"
           sodipodi:nodetypes="cccccccc" />
        <circle
           r="11.428572"
           cy="499.50507"
           cx="190.71428"
           id="circle4252"
           style="fill:#ffba2a;fill-opacity:1;fill-rule:evenodd;stroke:none;stroke-width:1px;stroke-linecap:butt;stroke-linejoin:miter;stroke-opacity:1" />
      </g>
      <g
         id="g4254"
         transform="matrix(-0.99882264,0.04851125,-0.04851125,-0.99882264,481.02208,978.54422)">
        <path
           sodipodi:nodetypes="cccccccc"
           inkscape:connector-curvature="0"
           id="path4256"
           d="m 191.64395,508.70987 c 4.91668,4.7354 11.1359,8.50904 17.22992,9.72485 14.93927,2.97842 29.46451,-6.71755 32.44351,-21.65673 1.69946,-8.58543 -0.77617,-17.4679 -6.67152,-23.93646 2.47602,5.01196 3.22016,10.80557 2.10747,16.40791 -2.68662,13.47539 -12.51659,22.51811 -25.25952,19.977 -5.17067,-1.22085 -9.06917,-6.07851 -11.82649,-8.21903 -1.5312,2.15486 -5.51211,6.94865 -8.02337,7.70246 z"
           style="fill:#b3b3b3;fill-opacity:1;stroke:none" />
        <circle
           style="fill:#ffba2a;fill-opacity:1;fill-rule:evenodd;stroke:none;stroke-width:1px;stroke-linecap:butt;stroke-linejoin:miter;stroke-opacity:1"
           id="circle4258"
           cx="190.71428"
           cy="499.50507"
           r="11.428572" />
      </g>
    </g>
    <g
       inkscape:export-ydpi="365.04001"
       inkscape:export-xdpi="365.04001"
       transform="matrix(-0.96592583,-0.25881905,0.25881905,-0.96592583,245.69869,1043.9085)"
       id="g4274">
      <g
         id="g4276">
        <path
           style="fill:#b3b3b3;fill-opacity:1;stroke:none"
           d="m 191.64395,508.70987 c 4.91668,4.7354 11.1359,8.50904 17.22992,9.72485 14.93927,2.97842 29.46451,-6.71755 32.44351,-21.65673 1.69946,-8.58543 -0.77617,-17.4679 -6.67152,-23.93646 2.47602,5.01196 3.22016,10.80557 2.10747,16.40791 -2.68662,13.47539 -12.51659,22.51811 -25.25952,19.977 -5.17067,-1.22085 -9.06917,-6.07851 -11.82649,-8.21903 -1.5312,2.15486 -5.51211,6.94865 -8.02337,7.70246 z"
           id="path4278"
           inkscape:connector-curvature="0"
           sodipodi:nodetypes="cccccccc" />
        <circle
           r="11.428572"
           cy="499.50507"
           cx="190.71428"
           id="circle4280"
           style="fill:#ffba2a;fill-opacity:1;fill-rule:evenodd;stroke:none;stroke-width:1px;stroke-linecap:butt;stroke-linejoin:miter;stroke-opacity:1" />
      </g>
      <g
         id="g4282"
         transform="matrix(-0.99882264,0.04851125,-0.04851125,-0.99882264,481.02208,978.54422)">
        <path
           sodipodi:nodetypes="cccccccc"
           inkscape:connector-curvature="0"
           id="path4284"
           d="m 191.64395,508.70987 c 4.91668,4.7354 11.1359,8.50904 17.22992,9.72485 14.93927,2.97842 29.46451,-6.71755 32.44351,-21.65673 1.69946,-8.58543 -0.77617,-17.4679 -6.67152,-23.93646 2.47602,5.01196 3.22016,10.80557 2.10747,16.40791 -2.68662,13.47539 -12.51659,22.51811 -25.25952,19.977 -5.17067,-1.22085 -9.06917,-6.07851 -11.82649,-8.21903 -1.5312,2.15486 -5.51211,6.94865 -8.02337,7.70246 z"
           style="fill:#b3b3b3;fill-opacity:1;stroke:none" />
        <circle
           style="fill:#ffba2a;fill-opacity:1;fill-rule:evenodd;stroke:none;stroke-width:1px;stroke-linecap:butt;stroke-linejoin:miter;stroke-opacity:1"
           id="circle4286"
           cx="190.71428"
           cy="499.50507"
           r="11.428572" />
      </g>
    </g>
    <g
       id="g4209"
       transform="matrix(-0.96592583,-0.25881905,0.25881905,-0.96592583,245.69869,1043.9085)"
       inkscape:export-xdpi="365.04001"
       inkscape:export-ydpi="365.04001">
      <g
         id="g4203">
        <path
           sodipodi:nodetypes="cccccccc"
           inkscape:connector-curvature="0"
           id="path4205"
           d="m 191.64395,508.70987 c 4.91668,4.7354 11.1359,8.50904 17.22992,9.72485 14.93927,2.97842 29.46451,-6.71755 32.44351,-21.65673 1.69946,-8.58543 -0.77617,-17.4679 -6.67152,-23.93646 2.47602,5.01196 3.22016,10.80557 2.10747,16.40791 -2.68662,13.47539 -12.51659,22.51811 -25.25952,19.977 -5.17067,-1.22085 -9.06917,-6.07851 -11.82649,-8.21903 -1.5312,2.15486 -5.51211,6.94865 -8.02337,7.70246 z"
           style="fill:#b3b3b3;fill-opacity:1;stroke:none" />
        <circle
           style="fill:#ffba2a;fill-opacity:1;fill-rule:evenodd;stroke:none;stroke-width:1px;stroke-linecap:butt;stroke-linejoin:miter;stroke-opacity:1"
           id="circle4207"
           cx="190.71428"
           cy="499.50507"
           r="11.428572" />
      </g>
      <g
         transform="matrix(-0.99882264,0.04851125,-0.04851125,-0.99882264,481.02208,978.54422)"
         id="g4199">
        <path
           style="fill:#b3b3b3;fill-opacity:1;stroke:none"
           d="m 191.64395,508.70987 c 4.91668,4.7354 11.1359,8.50904 17.22992,9.72485 14.93927,2.97842 29.46451,-6.71755 32.44351,-21.65673 1.69946,-8.58543 -0.77617,-17.4679 -6.67152,-23.93646 2.47602,5.01196 3.22016,10.80557 2.10747,16.40791 -2.68662,13.47539 -12.51659,22.51811 -25.25952,19.977 -5.17067,-1.22085 -9.06917,-6.07851 -11.82649,-8.21903 -1.5312,2.15486 -5.51211,6.94865 -8.02337,7.70246 z"
           id="path4190"
           inkscape:connector-curvature="0"
           sodipodi:nodetypes="cccccccc" />
        <circle
           r="11.428572"
           cy="499.50507"
           cx="190.71428"
           id="circle4183"
           style="fill:#ffba2a;fill-opacity:1;fill-rule:evenodd;stroke:none;stroke-width:1px;stroke-linecap:butt;stroke-linejoin:miter;stroke-opacity:1" />
      </g>
    </g>
  </g>
</svg>
